# xmcd
#
# Track frame offsets:
#  150
#  12673
#  31211
#  41799
#  56226
#  69832
#  88228
#  106500
#  123073
#  140219
#
# Disc length: 2081 seconds
#
# Revision: 0
# Processed by: cddbd v1.5.1PL2 Copyright (c) Steve Scherf et al.
# Submitted via: Collectorz.com_Music_Collector 6.11
#
DISCID=87081f0a
DTITLE=Terry Bradshaw - Here In My Heart
DYEAR=1981
DGENRE=Country Gospel
TTITLE0=Here In My Heart
TTITLE1=Lay Them Down
TTITLE2=Getting Free
TTITLE3=Create In Me
TTITLE4=In The Middle Of The Night
TTITLE5=What A Way To Go
TTITLE6=The Best
TTITLE7=You Gotta Care
TTITLE8=So Much From So Little
TTITLE9=He's The Man I'm Looking For
EXTD=
EXTT0=
EXTT1=
EXTT2=
EXTT3=
EXTT4=
EXTT5=
EXTT6=
EXTT7=
EXTT8=
EXTT9=
PLAYORDER=
